# xmcd CD database file
#
# Track frame offsets:
#	150
#	16332
#	28727
#	47670
#	63827
#	79730
#	93260
#	113697
#	132317
#	153123
#	166456
#	183735
#	199152
#	214675
#	227927
#	245730
#	262855
#
# Disc length: 3746 seconds
#
# Revision: 0
# Processed by: cddbd v1.5.1PL2 Copyright (c) Steve Scherf et al.
# Submitted via: CDex 1.51
#
DISCID=e10ea011
DTITLE=セリーヌ・ディオン - オン・ヌ・シャンジュ・パ　Disc-1
DYEAR=2006
DGENRE=Pop
TTITLE0=あなたを忘れない
TTITLE1=全ての秘密
TTITLE2=愛をふたたび
TTITLE3=愛するだけでよかったら
TTITLE4=風に吹かれるままに
TTITLE5=男たちの金すべて
TTITLE6=わたしは知らない
TTITLE7=人は変わらない
TTITLE8=別の世界で
TTITLE9=ズィギィ
TTITLE10=愛はここに
TTITLE11=貴方について行く
TTITLE12=エ・ジュテーム・アンコール
TTITLE13=飛べ
TTITLE14=私は彼に言うでしょう
TTITLE15=愛しかないとき
TTITLE16=アイ・ビリーヴ・イン・ユー(デュエット・ウィズ・イル・ディーヴォ)
EXTD=YEAR: 2006
EXTT0=
EXTT1=
EXTT2=
EXTT3=
EXTT4=
EXTT5=
EXTT6=
EXTT7=
EXTT8=
EXTT9=
EXTT10=
EXTT11=
EXTT12=
EXTT13=
EXTT14=
EXTT15=
EXTT16=
PLAYORDER=
